<?xml version="1.0" encoding="utf-8" standalone="no"?>
<!DOCTYPE svg PUBLIC "-//W3C//DTD SVG 1.1//EN"
  "http://www.w3.org/Graphics/SVG/1.1/DTD/svg11.dtd">
<svg xmlns:xlink="http://www.w3.org/1999/xlink" width="863.309061pt" height="280.474375pt" viewBox="0 0 863.309061 280.474375" xmlns="http://www.w3.org/2000/svg" version="1.1">
 <metadata>
  <rdf:RDF xmlns:dc="http://purl.org/dc/elements/1.1/" xmlns:cc="http://creativecommons.org/ns#" xmlns:rdf="http://www.w3.org/1999/02/22-rdf-syntax-ns#">
   <cc:Work>
    <dc:type rdf:resource="http://purl.org/dc/dcmitype/StillImage"/>
    <dc:date>2025-11-06T18:08:12.794675</dc:date>
    <dc:format>image/svg+xml</dc:format>
    <dc:creator>
     <cc:Agent>
      <dc:title>Matplotlib v3.10.7, https://matplotlib.org/</dc:title>
     </cc:Agent>
    </dc:creator>
   </cc:Work>
  </rdf:RDF>
 </metadata>
 <defs>
  <style type="text/css">*{stroke-linejoin: round; stroke-linecap: butt}</style>
 </defs>
 <g id="figure_1">
  <g id="patch_1">
   <path d="M 0 280.474375 
L 863.309061 280.474375 
L 863.309061 0 
L 0 0 
z
" style="fill: #ffffff"/>
  </g>
  <g id="axes_1">
   <g id="patch_2">
    <path d="M 56.50625 242.918125 
L 263.198122 242.918125 
L 263.198122 22.318125 
L 56.50625 22.318125 
z
" style="fill: #ffffff"/>
   </g>
   <g id="matplotlib.axis_1">
    <g id="xtick_1">
     <g id="line2d_1">
      <defs>
       <path id="m27da6ad4ce" d="M 0 0 
L 0 3.5 
" style="stroke: #000000; stroke-width: 0.8"/>
      </defs>
      <g>
       <use xlink:href="#m27da6ad4ce" x="65.901335" y="242.918125" style="stroke: #000000; stroke-width: 0.8"/>
      </g>
     </g>
     <g id="text_1">
      <!-- 0.0000 -->
      <g transform="translate(48.406023 257.516563) scale(0.1 -0.1)">
       <defs>
        <path id="DejaVuSans-30" d="M 2034 4250 
Q 1547 4250 1301 3770 
Q 1056 3291 1056 2328 
Q 1056 1369 1301 889 
Q 1547 409 2034 409 
Q 2525 409 2770 889 
Q 3016 1369 3016 2328 
Q 3016 3291 2770 3770 
Q 2525 4250 2034 4250 
z
M 2034 4750 
Q 2819 4750 3233 4129 
Q 3647 3509 3647 2328 
Q 3647 1150 3233 529 
Q 2819 -91 2034 -91 
Q 1250 -91 836 529 
Q 422 1150 422 2328 
Q 422 3509 836 4129 
Q 1250 4750 2034 4750 
z
" transform="scale(0.015625)"/>
        <path id="DejaVuSans-2e" d="M 684 794 
L 1344 794 
L 1344 0 
L 684 0 
L 684 794 
z
" transform="scale(0.015625)"/>
       </defs>
       <use xlink:href="#DejaVuSans-30"/>
       <use xlink:href="#DejaVuSans-2e" transform="translate(63.623047 0)"/>
       <use xlink:href="#DejaVuSans-30" transform="translate(95.410156 0)"/>
       <use xlink:href="#DejaVuSans-30" transform="translate(159.033203 0)"/>
       <use xlink:href="#DejaVuSans-30" transform="translate(222.65625 0)"/>
       <use xlink:href="#DejaVuSans-30" transform="translate(286.279297 0)"/>
      </g>
     </g>
    </g>
    <g id="xtick_2">
     <g id="line2d_2">
      <g>
       <use xlink:href="#m27da6ad4ce" x="112.87676" y="242.918125" style="stroke: #000000; stroke-width: 0.8"/>
      </g>
     </g>
     <g id="text_2">
      <!-- 0.0002 -->
      <g transform="translate(95.381448 257.516563) scale(0.1 -0.1)">
       <defs>
        <path id="DejaVuSans-32" d="M 1228 531 
L 3431 531 
L 3431 0 
L 469 0 
L 469 531 
Q 828 903 1448 1529 
Q 2069 2156 2228 2338 
Q 2531 2678 2651 2914 
Q 2772 3150 2772 3378 
Q 2772 3750 2511 3984 
Q 2250 4219 1831 4219 
Q 1534 4219 1204 4116 
Q 875 4013 500 3803 
L 500 4441 
Q 881 4594 1212 4672 
Q 1544 4750 1819 4750 
Q 2544 4750 2975 4387 
Q 3406 4025 3406 3419 
Q 3406 3131 3298 2873 
Q 3191 2616 2906 2266 
Q 2828 2175 2409 1742 
Q 1991 1309 1228 531 
z
" transform="scale(0.015625)"/>
       </defs>
       <use xlink:href="#DejaVuSans-30"/>
       <use xlink:href="#DejaVuSans-2e" transform="translate(63.623047 0)"/>
       <use xlink:href="#DejaVuSans-30" transform="translate(95.410156 0)"/>
       <use xlink:href="#DejaVuSans-30" transform="translate(159.033203 0)"/>
       <use xlink:href="#DejaVuSans-30" transform="translate(222.65625 0)"/>
       <use xlink:href="#DejaVuSans-32" transform="translate(286.279297 0)"/>
      </g>
     </g>
    </g>
    <g id="xtick_3">
     <g id="line2d_3">
      <g>
       <use xlink:href="#m27da6ad4ce" x="159.852186" y="242.918125" style="stroke: #000000; stroke-width: 0.8"/>
      </g>
     </g>
     <g id="text_3">
      <!-- 0.0004 -->
      <g transform="translate(142.356873 257.516563) scale(0.1 -0.1)">
       <defs>
        <path id="DejaVuSans-34" d="M 2419 4116 
L 825 1625 
L 2419 1625 
L 2419 4116 
z
M 2253 4666 
L 3047 4666 
L 3047 1625 
L 3713 1625 
L 3713 1100 
L 3047 1100 
L 3047 0 
L 2419 0 
L 2419 1100 
L 313 1100 
L 313 1709 
L 2253 4666 
z
" transform="scale(0.015625)"/>
       </defs>
       <use xlink:href="#DejaVuSans-30"/>
       <use xlink:href="#DejaVuSans-2e" transform="translate(63.623047 0)"/>
       <use xlink:href="#DejaVuSans-30" transform="translate(95.410156 0)"/>
       <use xlink:href="#DejaVuSans-30" transform="translate(159.033203 0)"/>
       <use xlink:href="#DejaVuSans-30" transform="translate(222.65625 0)"/>
       <use xlink:href="#DejaVuSans-34" transform="translate(286.279297 0)"/>
      </g>
     </g>
    </g>
    <g id="xtick_4">
     <g id="line2d_4">
      <g>
       <use xlink:href="#m27da6ad4ce" x="206.827611" y="242.918125" style="stroke: #000000; stroke-width: 0.8"/>
      </g>
     </g>
     <g id="text_4">
      <!-- 0.0006 -->
      <g transform="translate(189.332299 257.516563) scale(0.1 -0.1)">
       <defs>
        <path id="DejaVuSans-36" d="M 2113 2584 
Q 1688 2584 1439 2293 
Q 1191 2003 1191 1497 
Q 1191 994 1439 701 
Q 1688 409 2113 409 
Q 2538 409 2786 701 
Q 3034 994 3034 1497 
Q 3034 2003 2786 2293 
Q 2538 2584 2113 2584 
z
M 3366 4563 
L 3366 3988 
Q 3128 4100 2886 4159 
Q 2644 4219 2406 4219 
Q 1781 4219 1451 3797 
Q 1122 3375 1075 2522 
Q 1259 2794 1537 2939 
Q 1816 3084 2150 3084 
Q 2853 3084 3261 2657 
Q 3669 2231 3669 1497 
Q 3669 778 3244 343 
Q 2819 -91 2113 -91 
Q 1303 -91 875 529 
Q 447 1150 447 2328 
Q 447 3434 972 4092 
Q 1497 4750 2381 4750 
Q 2619 4750 2861 4703 
Q 3103 4656 3366 4563 
z
" transform="scale(0.015625)"/>
       </defs>
       <use xlink:href="#DejaVuSans-30"/>
       <use xlink:href="#DejaVuSans-2e" transform="translate(63.623047 0)"/>
       <use xlink:href="#DejaVuSans-30" transform="translate(95.410156 0)"/>
       <use xlink:href="#DejaVuSans-30" transform="translate(159.033203 0)"/>
       <use xlink:href="#DejaVuSans-30" transform="translate(222.65625 0)"/>
       <use xlink:href="#DejaVuSans-36" transform="translate(286.279297 0)"/>
      </g>
     </g>
    </g>
    <g id="xtick_5">
     <g id="line2d_5">
      <g>
       <use xlink:href="#m27da6ad4ce" x="253.803037" y="242.918125" style="stroke: #000000; stroke-width: 0.8"/>
      </g>
     </g>
     <g id="text_5">
      <!-- 0.0008 -->
      <g transform="translate(236.307724 257.516563) scale(0.1 -0.1)">
       <defs>
        <path id="DejaVuSans-38" d="M 2034 2216 
Q 1584 2216 1326 1975 
Q 1069 1734 1069 1313 
Q 1069 891 1326 650 
Q 1584 409 2034 409 
Q 2484 409 2743 651 
Q 3003 894 3003 1313 
Q 3003 1734 2745 1975 
Q 2488 2216 2034 2216 
z
M 1403 2484 
Q 997 2584 770 2862 
Q 544 3141 544 3541 
Q 544 4100 942 4425 
Q 1341 4750 2034 4750 
Q 2731 4750 3128 4425 
Q 3525 4100 3525 3541 
Q 3525 3141 3298 2862 
Q 3072 2584 2669 2484 
Q 3125 2378 3379 2068 
Q 3634 1759 3634 1313 
Q 3634 634 3220 271 
Q 2806 -91 2034 -91 
Q 1263 -91 848 271 
Q 434 634 434 1313 
Q 434 1759 690 2068 
Q 947 2378 1403 2484 
z
M 1172 3481 
Q 1172 3119 1398 2916 
Q 1625 2713 2034 2713 
Q 2441 2713 2670 2916 
Q 2900 3119 2900 3481 
Q 2900 3844 2670 4047 
Q 2441 4250 2034 4250 
Q 1625 4250 1398 4047 
Q 1172 3844 1172 3481 
z
" transform="scale(0.015625)"/>
       </defs>
       <use xlink:href="#DejaVuSans-30"/>
       <use xlink:href="#DejaVuSans-2e" transform="translate(63.623047 0)"/>
       <use xlink:href="#DejaVuSans-30" transform="translate(95.410156 0)"/>
       <use xlink:href="#DejaVuSans-30" transform="translate(159.033203 0)"/>
       <use xlink:href="#DejaVuSans-30" transform="translate(222.65625 0)"/>
       <use xlink:href="#DejaVuSans-38" transform="translate(286.279297 0)"/>
      </g>
     </g>
    </g>
    <g id="text_6">
     <!-- Drift rate (flux) -->
     <g transform="translate(122.411561 271.194687) scale(0.1 -0.1)">
      <defs>
       <path id="DejaVuSans-44" d="M 1259 4147 
L 1259 519 
L 2022 519 
Q 2988 519 3436 956 
Q 3884 1394 3884 2338 
Q 3884 3275 3436 3711 
Q 2988 4147 2022 4147 
L 1259 4147 
z
M 628 4666 
L 1925 4666 
Q 3281 4666 3915 4102 
Q 4550 3538 4550 2338 
Q 4550 1131 3912 565 
Q 3275 0 1925 0 
L 628 0 
L 628 4666 
z
" transform="scale(0.015625)"/>
       <path id="DejaVuSans-72" d="M 2631 2963 
Q 2534 3019 2420 3045 
Q 2306 3072 2169 3072 
Q 1681 3072 1420 2755 
Q 1159 2438 1159 1844 
L 1159 0 
L 581 0 
L 581 3500 
L 1159 3500 
L 1159 2956 
Q 1341 3275 1631 3429 
Q 1922 3584 2338 3584 
Q 2397 3584 2469 3576 
Q 2541 3569 2628 3553 
L 2631 2963 
z
" transform="scale(0.015625)"/>
       <path id="DejaVuSans-69" d="M 603 3500 
L 1178 3500 
L 1178 0 
L 603 0 
L 603 3500 
z
M 603 4863 
L 1178 4863 
L 1178 4134 
L 603 4134 
L 603 4863 
z
" transform="scale(0.015625)"/>
       <path id="DejaVuSans-66" d="M 2375 4863 
L 2375 4384 
L 1825 4384 
Q 1516 4384 1395 4259 
Q 1275 4134 1275 3809 
L 1275 3500 
L 2222 3500 
L 2222 3053 
L 1275 3053 
L 1275 0 
L 697 0 
L 697 3053 
L 147 3053 
L 147 3500 
L 697 3500 
L 697 3744 
Q 697 4328 969 4595 
Q 1241 4863 1831 4863 
L 2375 4863 
z
" transform="scale(0.015625)"/>
       <path id="DejaVuSans-74" d="M 1172 4494 
L 1172 3500 
L 2356 3500 
L 2356 3053 
L 1172 3053 
L 1172 1153 
Q 1172 725 1289 603 
Q 1406 481 1766 481 
L 2356 481 
L 2356 0 
L 1766 0 
Q 1100 0 847 248 
Q 594 497 594 1153 
L 594 3053 
L 172 3053 
L 172 3500 
L 594 3500 
L 594 4494 
L 1172 4494 
z
" transform="scale(0.015625)"/>
       <path id="DejaVuSans-20" transform="scale(0.015625)"/>
       <path id="DejaVuSans-61" d="M 2194 1759 
Q 1497 1759 1228 1600 
Q 959 1441 959 1056 
Q 959 750 1161 570 
Q 1363 391 1709 391 
Q 2188 391 2477 730 
Q 2766 1069 2766 1631 
L 2766 1759 
L 2194 1759 
z
M 3341 1997 
L 3341 0 
L 2766 0 
L 2766 531 
Q 2569 213 2275 61 
Q 1981 -91 1556 -91 
Q 1019 -91 701 211 
Q 384 513 384 1019 
Q 384 1609 779 1909 
Q 1175 2209 1959 2209 
L 2766 2209 
L 2766 2266 
Q 2766 2663 2505 2880 
Q 2244 3097 1772 3097 
Q 1472 3097 1187 3025 
Q 903 2953 641 2809 
L 641 3341 
Q 956 3463 1253 3523 
Q 1550 3584 1831 3584 
Q 2591 3584 2966 3190 
Q 3341 2797 3341 1997 
z
" transform="scale(0.015625)"/>
       <path id="DejaVuSans-65" d="M 3597 1894 
L 3597 1613 
L 953 1613 
Q 991 1019 1311 708 
Q 1631 397 2203 397 
Q 2534 397 2845 478 
Q 3156 559 3463 722 
L 3463 178 
Q 3153 47 2828 -22 
Q 2503 -91 2169 -91 
Q 1331 -91 842 396 
Q 353 884 353 1716 
Q 353 2575 817 3079 
Q 1281 3584 2069 3584 
Q 2775 3584 3186 3129 
Q 3597 2675 3597 1894 
z
M 3022 2063 
Q 3016 2534 2758 2815 
Q 2500 3097 2075 3097 
Q 1594 3097 1305 2825 
Q 1016 2553 972 2059 
L 3022 2063 
z
" transform="scale(0.015625)"/>
       <path id="DejaVuSans-28" d="M 1984 4856 
Q 1566 4138 1362 3434 
Q 1159 2731 1159 2009 
Q 1159 1288 1364 580 
Q 1569 -128 1984 -844 
L 1484 -844 
Q 1016 -109 783 600 
Q 550 1309 550 2009 
Q 550 2706 781 3412 
Q 1013 4119 1484 4856 
L 1984 4856 
z
" transform="scale(0.015625)"/>
       <path id="DejaVuSans-6c" d="M 603 4863 
L 1178 4863 
L 1178 0 
L 603 0 
L 603 4863 
z
" transform="scale(0.015625)"/>
       <path id="DejaVuSans-75" d="M 544 1381 
L 544 3500 
L 1119 3500 
L 1119 1403 
Q 1119 906 1312 657 
Q 1506 409 1894 409 
Q 2359 409 2629 706 
Q 2900 1003 2900 1516 
L 2900 3500 
L 3475 3500 
L 3475 0 
L 2900 0 
L 2900 538 
Q 2691 219 2414 64 
Q 2138 -91 1772 -91 
Q 1169 -91 856 284 
Q 544 659 544 1381 
z
M 1991 3584 
L 1991 3584 
z
" transform="scale(0.015625)"/>
       <path id="DejaVuSans-78" d="M 3513 3500 
L 2247 1797 
L 3578 0 
L 2900 0 
L 1881 1375 
L 863 0 
L 184 0 
L 1544 1831 
L 300 3500 
L 978 3500 
L 1906 2253 
L 2834 3500 
L 3513 3500 
z
" transform="scale(0.015625)"/>
       <path id="DejaVuSans-29" d="M 513 4856 
L 1013 4856 
Q 1481 4119 1714 3412 
Q 1947 2706 1947 2009 
Q 1947 1309 1714 600 
Q 1481 -109 1013 -844 
L 513 -844 
Q 928 -128 1133 580 
Q 1338 1288 1338 2009 
Q 1338 2731 1133 3434 
Q 928 4138 513 4856 
z
" transform="scale(0.015625)"/>
      </defs>
      <use xlink:href="#DejaVuSans-44"/>
      <use xlink:href="#DejaVuSans-72" transform="translate(77.001953 0)"/>
      <use xlink:href="#DejaVuSans-69" transform="translate(118.115234 0)"/>
      <use xlink:href="#DejaVuSans-66" transform="translate(145.898438 0)"/>
      <use xlink:href="#DejaVuSans-74" transform="translate(179.353516 0)"/>
      <use xlink:href="#DejaVuSans-20" transform="translate(218.5625 0)"/>
      <use xlink:href="#DejaVuSans-72" transform="translate(250.349609 0)"/>
      <use xlink:href="#DejaVuSans-61" transform="translate(291.462891 0)"/>
      <use xlink:href="#DejaVuSans-74" transform="translate(352.742188 0)"/>
      <use xlink:href="#DejaVuSans-65" transform="translate(391.951172 0)"/>
      <use xlink:href="#DejaVuSans-20" transform="translate(453.474609 0)"/>
      <use xlink:href="#DejaVuSans-28" transform="translate(485.261719 0)"/>
      <use xlink:href="#DejaVuSans-66" transform="translate(524.275391 0)"/>
      <use xlink:href="#DejaVuSans-6c" transform="translate(559.480469 0)"/>
      <use xlink:href="#DejaVuSans-75" transform="translate(587.263672 0)"/>
      <use xlink:href="#DejaVuSans-78" transform="translate(650.642578 0)"/>
      <use xlink:href="#DejaVuSans-29" transform="translate(709.822266 0)"/>
     </g>
    </g>
   </g>
   <g id="matplotlib.axis_2">
    <g id="ytick_1">
     <g id="line2d_6">
      <defs>
       <path id="m153d993c8b" d="M 0 0 
L -3.5 0 
" style="stroke: #000000; stroke-width: 0.8"/>
      </defs>
      <g>
       <use xlink:href="#m153d993c8b" x="56.50625" y="217.96573" style="stroke: #000000; stroke-width: 0.8"/>
      </g>
     </g>
     <g id="text_7">
      <!-- 0.232 -->
      <g transform="translate(20.878125 221.764948) scale(0.1 -0.1)">
       <defs>
        <path id="DejaVuSans-33" d="M 2597 2516 
Q 3050 2419 3304 2112 
Q 3559 1806 3559 1356 
Q 3559 666 3084 287 
Q 2609 -91 1734 -91 
Q 1441 -91 1130 -33 
Q 819 25 488 141 
L 488 750 
Q 750 597 1062 519 
Q 1375 441 1716 441 
Q 2309 441 2620 675 
Q 2931 909 2931 1356 
Q 2931 1769 2642 2001 
Q 2353 2234 1838 2234 
L 1294 2234 
L 1294 2753 
L 1863 2753 
Q 2328 2753 2575 2939 
Q 2822 3125 2822 3475 
Q 2822 3834 2567 4026 
Q 2313 4219 1838 4219 
Q 1578 4219 1281 4162 
Q 984 4106 628 3988 
L 628 4550 
Q 988 4650 1302 4700 
Q 1616 4750 1894 4750 
Q 2613 4750 3031 4423 
Q 3450 4097 3450 3541 
Q 3450 3153 3228 2886 
Q 3006 2619 2597 2516 
z
" transform="scale(0.015625)"/>
       </defs>
       <use xlink:href="#DejaVuSans-30"/>
       <use xlink:href="#DejaVuSans-2e" transform="translate(63.623047 0)"/>
       <use xlink:href="#DejaVuSans-32" transform="translate(95.410156 0)"/>
       <use xlink:href="#DejaVuSans-33" transform="translate(159.033203 0)"/>
       <use xlink:href="#DejaVuSans-32" transform="translate(222.65625 0)"/>
      </g>
     </g>
    </g>
    <g id="ytick_2">
     <g id="line2d_7">
      <g>
       <use xlink:href="#m153d993c8b" x="56.50625" y="175.404616" style="stroke: #000000; stroke-width: 0.8"/>
      </g>
     </g>
     <g id="text_8">
      <!-- 0.234 -->
      <g transform="translate(20.878125 179.203835) scale(0.1 -0.1)">
       <use xlink:href="#DejaVuSans-30"/>
       <use xlink:href="#DejaVuSans-2e" transform="translate(63.623047 0)"/>
       <use xlink:href="#DejaVuSans-32" transform="translate(95.410156 0)"/>
       <use xlink:href="#DejaVuSans-33" transform="translate(159.033203 0)"/>
       <use xlink:href="#DejaVuSans-34" transform="translate(222.65625 0)"/>
      </g>
     </g>
    </g>
    <g id="ytick_3">
     <g id="line2d_8">
      <g>
       <use xlink:href="#m153d993c8b" x="56.50625" y="132.843503" style="stroke: #000000; stroke-width: 0.8"/>
      </g>
     </g>
     <g id="text_9">
      <!-- 0.236 -->
      <g transform="translate(20.878125 136.642721) scale(0.1 -0.1)">
       <use xlink:href="#DejaVuSans-30"/>
       <use xlink:href="#DejaVuSans-2e" transform="translate(63.623047 0)"/>
       <use xlink:href="#DejaVuSans-32" transform="translate(95.410156 0)"/>
       <use xlink:href="#DejaVuSans-33" transform="translate(159.033203 0)"/>
       <use xlink:href="#DejaVuSans-36" transform="translate(222.65625 0)"/>
      </g>
     </g>
    </g>
    <g id="ytick_4">
     <g id="line2d_9">
      <g>
       <use xlink:href="#m153d993c8b" x="56.50625" y="90.282389" style="stroke: #000000; stroke-width: 0.8"/>
      </g>
     </g>
     <g id="text_10">
      <!-- 0.238 -->
      <g transform="translate(20.878125 94.081608) scale(0.1 -0.1)">
       <use xlink:href="#DejaVuSans-30"/>
       <use xlink:href="#DejaVuSans-2e" transform="translate(63.623047 0)"/>
       <use xlink:href="#DejaVuSans-32" transform="translate(95.410156 0)"/>
       <use xlink:href="#DejaVuSans-33" transform="translate(159.033203 0)"/>
       <use xlink:href="#DejaVuSans-38" transform="translate(222.65625 0)"/>
      </g>
     </g>
    </g>
    <g id="ytick_5">
     <g id="line2d_10">
      <g>
       <use xlink:href="#m153d993c8b" x="56.50625" y="47.721276" style="stroke: #000000; stroke-width: 0.8"/>
      </g>
     </g>
     <g id="text_11">
      <!-- 0.240 -->
      <g transform="translate(20.878125 51.520494) scale(0.1 -0.1)">
       <use xlink:href="#DejaVuSans-30"/>
       <use xlink:href="#DejaVuSans-2e" transform="translate(63.623047 0)"/>
       <use xlink:href="#DejaVuSans-32" transform="translate(95.410156 0)"/>
       <use xlink:href="#DejaVuSans-34" transform="translate(159.033203 0)"/>
       <use xlink:href="#DejaVuSans-30" transform="translate(222.65625 0)"/>
      </g>
     </g>
    </g>
    <g id="text_12">
     <!-- Permutation Entropy -->
     <g transform="translate(14.798438 184.150156) rotate(-90) scale(0.1 -0.1)">
      <defs>
       <path id="DejaVuSans-50" d="M 1259 4147 
L 1259 2394 
L 2053 2394 
Q 2494 2394 2734 2622 
Q 2975 2850 2975 3272 
Q 2975 3691 2734 3919 
Q 2494 4147 2053 4147 
L 1259 4147 
z
M 628 4666 
L 2053 4666 
Q 2838 4666 3239 4311 
Q 3641 3956 3641 3272 
Q 3641 2581 3239 2228 
Q 2838 1875 2053 1875 
L 1259 1875 
L 1259 0 
L 628 0 
L 628 4666 
z
" transform="scale(0.015625)"/>
       <path id="DejaVuSans-6d" d="M 3328 2828 
Q 3544 3216 3844 3400 
Q 4144 3584 4550 3584 
Q 5097 3584 5394 3201 
Q 5691 2819 5691 2113 
L 5691 0 
L 5113 0 
L 5113 2094 
Q 5113 2597 4934 2840 
Q 4756 3084 4391 3084 
Q 3944 3084 3684 2787 
Q 3425 2491 3425 1978 
L 3425 0 
L 2847 0 
L 2847 2094 
Q 2847 2600 2669 2842 
Q 2491 3084 2119 3084 
Q 1678 3084 1418 2786 
Q 1159 2488 1159 1978 
L 1159 0 
L 581 0 
L 581 3500 
L 1159 3500 
L 1159 2956 
Q 1356 3278 1631 3431 
Q 1906 3584 2284 3584 
Q 2666 3584 2933 3390 
Q 3200 3197 3328 2828 
z
" transform="scale(0.015625)"/>
       <path id="DejaVuSans-6f" d="M 1959 3097 
Q 1497 3097 1228 2736 
Q 959 2375 959 1747 
Q 959 1119 1226 758 
Q 1494 397 1959 397 
Q 2419 397 2687 759 
Q 2956 1122 2956 1747 
Q 2956 2369 2687 2733 
Q 2419 3097 1959 3097 
z
M 1959 3584 
Q 2709 3584 3137 3096 
Q 3566 2609 3566 1747 
Q 3566 888 3137 398 
Q 2709 -91 1959 -91 
Q 1206 -91 779 398 
Q 353 888 353 1747 
Q 353 2609 779 3096 
Q 1206 3584 1959 3584 
z
" transform="scale(0.015625)"/>
       <path id="DejaVuSans-6e" d="M 3513 2113 
L 3513 0 
L 2938 0 
L 2938 2094 
Q 2938 2591 2744 2837 
Q 2550 3084 2163 3084 
Q 1697 3084 1428 2787 
Q 1159 2491 1159 1978 
L 1159 0 
L 581 0 
L 581 3500 
L 1159 3500 
L 1159 2956 
Q 1366 3272 1645 3428 
Q 1925 3584 2291 3584 
Q 2894 3584 3203 3211 
Q 3513 2838 3513 2113 
z
" transform="scale(0.015625)"/>
       <path id="DejaVuSans-45" d="M 628 4666 
L 3578 4666 
L 3578 4134 
L 1259 4134 
L 1259 2753 
L 3481 2753 
L 3481 2222 
L 1259 2222 
L 1259 531 
L 3634 531 
L 3634 0 
L 628 0 
L 628 4666 
z
" transform="scale(0.015625)"/>
       <path id="DejaVuSans-70" d="M 1159 525 
L 1159 -1331 
L 581 -1331 
L 581 3500 
L 1159 3500 
L 1159 2969 
Q 1341 3281 1617 3432 
Q 1894 3584 2278 3584 
Q 2916 3584 3314 3078 
Q 3713 2572 3713 1747 
Q 3713 922 3314 415 
Q 2916 -91 2278 -91 
Q 1894 -91 1617 61 
Q 1341 213 1159 525 
z
M 3116 1747 
Q 3116 2381 2855 2742 
Q 2594 3103 2138 3103 
Q 1681 3103 1420 2742 
Q 1159 2381 1159 1747 
Q 1159 1113 1420 752 
Q 1681 391 2138 391 
Q 2594 391 2855 752 
Q 3116 1113 3116 1747 
z
" transform="scale(0.015625)"/>
       <path id="DejaVuSans-79" d="M 2059 -325 
Q 1816 -950 1584 -1140 
Q 1353 -1331 966 -1331 
L 506 -1331 
L 506 -850 
L 844 -850 
Q 1081 -850 1212 -737 
Q 1344 -625 1503 -206 
L 1606 56 
L 191 3500 
L 800 3500 
L 1894 763 
L 2988 3500 
L 3597 3500 
L 2059 -325 
z
" transform="scale(0.015625)"/>
      </defs>
      <use xlink:href="#DejaVuSans-50"/>
      <use xlink:href="#DejaVuSans-65" transform="translate(56.677734 0)"/>
      <use xlink:href="#DejaVuSans-72" transform="translate(118.201172 0)"/>
      <use xlink:href="#DejaVuSans-6d" transform="translate(157.564453 0)"/>
      <use xlink:href="#DejaVuSans-75" transform="translate(254.976562 0)"/>
      <use xlink:href="#DejaVuSans-74" transform="translate(318.355469 0)"/>
      <use xlink:href="#DejaVuSans-61" transform="translate(357.564453 0)"/>
      <use xlink:href="#DejaVuSans-74" transform="translate(418.84375 0)"/>
      <use xlink:href="#DejaVuSans-69" transform="translate(458.052734 0)"/>
      <use xlink:href="#DejaVuSans-6f" transform="translate(485.835938 0)"/>
      <use xlink:href="#DejaVuSans-6e" transform="translate(547.017578 0)"/>
      <use xlink:href="#DejaVuSans-20" transform="translate(610.396484 0)"/>
      <use xlink:href="#DejaVuSans-45" transform="translate(642.183594 0)"/>
      <use xlink:href="#DejaVuSans-6e" transform="translate(705.367188 0)"/>
      <use xlink:href="#DejaVuSans-74" transform="translate(768.746094 0)"/>
      <use xlink:href="#DejaVuSans-72" transform="translate(807.955078 0)"/>
      <use xlink:href="#DejaVuSans-6f" transform="translate(846.818359 0)"/>
      <use xlink:href="#DejaVuSans-70" transform="translate(908 0)"/>
      <use xlink:href="#DejaVuSans-79" transform="translate(971.476562 0)"/>
     </g>
    </g>
   </g>
   <g id="line2d_11">
    <path d="M 65.901335 221.015226 
L 89.389048 199.901476 
L 112.87676 211.033944 
L 159.852186 132.9598 
L 253.803037 32.345398 
" clip-path="url(#p1755e1c7c8)" style="fill: none; stroke: #1f77b4; stroke-width: 2; stroke-linecap: square"/>
    <defs>
     <path id="m8a209e569f" d="M 0 3 
C 0.795609 3 1.55874 2.683901 2.12132 2.12132 
C 2.683901 1.55874 3 0.795609 3 0 
C 3 -0.795609 2.683901 -1.55874 2.12132 -2.12132 
C 1.55874 -2.683901 0.795609 -3 0 -3 
C -0.795609 -3 -1.55874 -2.683901 -2.12132 -2.12132 
C -2.683901 -1.55874 -3 -0.795609 -3 0 
C -3 0.795609 -2.683901 1.55874 -2.12132 2.12132 
C -1.55874 2.683901 -0.795609 3 0 3 
z
" style="stroke: #1f77b4"/>
    </defs>
    <g clip-path="url(#p1755e1c7c8)">
     <use xlink:href="#m8a209e569f" x="65.901335" y="221.015226" style="fill: #1f77b4; stroke: #1f77b4"/>
     <use xlink:href="#m8a209e569f" x="89.389048" y="199.901476" style="fill: #1f77b4; stroke: #1f77b4"/>
     <use xlink:href="#m8a209e569f" x="112.87676" y="211.033944" style="fill: #1f77b4; stroke: #1f77b4"/>
     <use xlink:href="#m8a209e569f" x="159.852186" y="132.9598" style="fill: #1f77b4; stroke: #1f77b4"/>
     <use xlink:href="#m8a209e569f" x="253.803037" y="32.345398" style="fill: #1f77b4; stroke: #1f77b4"/>
    </g>
   </g>
   <g id="line2d_12">
    <path d="M 65.901335 232.890852 
L 67.799332 230.912679 
L 69.697329 228.934506 
L 71.595326 226.956332 
L 73.493323 224.978159 
L 75.39132 222.999986 
L 77.289317 221.021812 
L 79.187314 219.043639 
L 81.085311 217.065466 
L 82.983308 215.087293 
L 84.881305 213.109119 
L 86.779302 211.130946 
L 88.677299 209.152773 
L 90.575296 207.174599 
L 92.473293 205.196426 
L 94.37129 203.218253 
L 96.269287 201.240079 
L 98.167284 199.261906 
L 100.065281 197.283733 
L 101.963278 195.30556 
L 103.861275 193.327386 
L 105.759272 191.349213 
L 107.657269 189.37104 
L 109.555266 187.392866 
L 111.453263 185.414693 
L 113.35126 183.43652 
L 115.249257 181.458346 
L 117.147254 179.480173 
L 119.045251 177.502 
L 120.943248 175.523827 
L 122.841245 173.545653 
L 124.739242 171.56748 
L 126.637239 169.589307 
L 128.535236 167.611133 
L 130.433233 165.63296 
L 132.33123 163.654787 
L 134.229227 161.676613 
L 136.127224 159.69844 
L 138.025221 157.720267 
L 139.923217 155.742094 
L 141.821214 153.76392 
L 143.719211 151.785747 
L 145.617208 149.807574 
L 147.515205 147.8294 
L 149.413202 145.851227 
L 151.311199 143.873054 
L 153.209196 141.89488 
L 155.107193 139.916707 
L 157.00519 137.938534 
L 158.903187 135.960361 
L 160.801184 133.982187 
L 162.699181 132.004014 
L 164.597178 130.025841 
L 166.495175 128.047667 
L 168.393172 126.069494 
L 170.291169 124.091321 
L 172.189166 122.113147 
L 174.087163 120.134974 
L 175.98516 118.156801 
L 177.883157 116.178628 
L 179.781154 114.200454 
L 181.679151 112.222281 
L 183.577148 110.244108 
L 185.475145 108.265934 
L 187.373142 106.287761 
L 189.271139 104.309588 
L 191.169136 102.331414 
L 193.067133 100.353241 
L 194.96513 98.375068 
L 196.863127 96.396895 
L 198.761124 94.418721 
L 200.659121 92.440548 
L 202.557118 90.462375 
L 204.455115 88.484201 
L 206.353112 86.506028 
L 208.251109 84.527855 
L 210.149106 82.549681 
L 212.047103 80.571508 
L 213.9451 78.593335 
L 215.843097 76.615162 
L 217.741094 74.636988 
L 219.639091 72.658815 
L 221.537088 70.680642 
L 223.435085 68.702468 
L 225.333082 66.724295 
L 227.231079 64.746122 
L 229.129076 62.767948 
L 231.027073 60.789775 
L 232.92507 58.811602 
L 234.823067 56.833429 
L 236.721064 54.855255 
L 238.619061 52.877082 
L 240.517058 50.898909 
L 242.415055 48.920735 
L 244.313052 46.942562 
L 246.211049 44.964389 
L 248.109046 42.986215 
L 250.007043 41.008042 
L 251.90504 39.029869 
L 253.803037 37.051696 
" clip-path="url(#p1755e1c7c8)" style="fill: none; stroke-dasharray: 5.55,2.4; stroke-dashoffset: 0; stroke: #ff7f0e; stroke-width: 1.5"/>
   </g>
   <g id="patch_3">
    <path d="M 56.50625 242.918125 
L 56.50625 22.318125 
" style="fill: none; stroke: #000000; stroke-width: 0.8; stroke-linejoin: miter; stroke-linecap: square"/>
   </g>
   <g id="patch_4">
    <path d="M 263.198122 242.918125 
L 263.198122 22.318125 
" style="fill: none; stroke: #000000; stroke-width: 0.8; stroke-linejoin: miter; stroke-linecap: square"/>
   </g>
   <g id="patch_5">
    <path d="M 56.50625 242.918125 
L 263.198122 242.918125 
" style="fill: none; stroke: #000000; stroke-width: 0.8; stroke-linejoin: miter; stroke-linecap: square"/>
   </g>
   <g id="patch_6">
    <path d="M 56.50625 22.318125 
L 263.198122 22.318125 
" style="fill: none; stroke: #000000; stroke-width: 0.8; stroke-linejoin: miter; stroke-linecap: square"/>
   </g>
   <g id="text_13">
    <!-- slope=1.15e+01 -->
    <g transform="translate(66.840844 47.564562) scale(0.1 -0.1)">
     <defs>
      <path id="DejaVuSans-73" d="M 2834 3397 
L 2834 2853 
Q 2591 2978 2328 3040 
Q 2066 3103 1784 3103 
Q 1356 3103 1142 2972 
Q 928 2841 928 2578 
Q 928 2378 1081 2264 
Q 1234 2150 1697 2047 
L 1894 2003 
Q 2506 1872 2764 1633 
Q 3022 1394 3022 966 
Q 3022 478 2636 193 
Q 2250 -91 1575 -91 
Q 1294 -91 989 -36 
Q 684 19 347 128 
L 347 722 
Q 666 556 975 473 
Q 1284 391 1588 391 
Q 1994 391 2212 530 
Q 2431 669 2431 922 
Q 2431 1156 2273 1281 
Q 2116 1406 1581 1522 
L 1381 1569 
Q 847 1681 609 1914 
Q 372 2147 372 2553 
Q 372 3047 722 3315 
Q 1072 3584 1716 3584 
Q 2034 3584 2315 3537 
Q 2597 3491 2834 3397 
z
" transform="scale(0.015625)"/>
      <path id="DejaVuSans-3d" d="M 678 2906 
L 4684 2906 
L 4684 2381 
L 678 2381 
L 678 2906 
z
M 678 1631 
L 4684 1631 
L 4684 1100 
L 678 1100 
L 678 1631 
z
" transform="scale(0.015625)"/>
      <path id="DejaVuSans-31" d="M 794 531 
L 1825 531 
L 1825 4091 
L 703 3866 
L 703 4441 
L 1819 4666 
L 2450 4666 
L 2450 531 
L 3481 531 
L 3481 0 
L 794 0 
L 794 531 
z
" transform="scale(0.015625)"/>
      <path id="DejaVuSans-35" d="M 691 4666 
L 3169 4666 
L 3169 4134 
L 1269 4134 
L 1269 2991 
Q 1406 3038 1543 3061 
Q 1681 3084 1819 3084 
Q 2600 3084 3056 2656 
Q 3513 2228 3513 1497 
Q 3513 744 3044 326 
Q 2575 -91 1722 -91 
Q 1428 -91 1123 -41 
Q 819 9 494 109 
L 494 744 
Q 775 591 1075 516 
Q 1375 441 1709 441 
Q 2250 441 2565 725 
Q 2881 1009 2881 1497 
Q 2881 1984 2565 2268 
Q 2250 2553 1709 2553 
Q 1456 2553 1204 2497 
Q 953 2441 691 2322 
L 691 4666 
z
" transform="scale(0.015625)"/>
      <path id="DejaVuSans-2b" d="M 2944 4013 
L 2944 2272 
L 4684 2272 
L 4684 1741 
L 2944 1741 
L 2944 0 
L 2419 0 
L 2419 1741 
L 678 1741 
L 678 2272 
L 2419 2272 
L 2419 4013 
L 2944 4013 
z
" transform="scale(0.015625)"/>
     </defs>
     <use xlink:href="#DejaVuSans-73"/>
     <use xlink:href="#DejaVuSans-6c" transform="translate(52.099609 0)"/>
     <use xlink:href="#DejaVuSans-6f" transform="translate(79.882812 0)"/>
     <use xlink:href="#DejaVuSans-70" transform="translate(141.064453 0)"/>
     <use xlink:href="#DejaVuSans-65" transform="translate(204.541016 0)"/>
     <use xlink:href="#DejaVuSans-3d" transform="translate(266.064453 0)"/>
     <use xlink:href="#DejaVuSans-31" transform="translate(349.853516 0)"/>
     <use xlink:href="#DejaVuSans-2e" transform="translate(413.476562 0)"/>
     <use xlink:href="#DejaVuSans-31" transform="translate(445.263672 0)"/>
     <use xlink:href="#DejaVuSans-35" transform="translate(508.886719 0)"/>
     <use xlink:href="#DejaVuSans-65" transform="translate(572.509766 0)"/>
     <use xlink:href="#DejaVuSans-2b" transform="translate(634.033203 0)"/>
     <use xlink:href="#DejaVuSans-30" transform="translate(717.822266 0)"/>
     <use xlink:href="#DejaVuSans-31" transform="translate(781.445312 0)"/>
    </g>
    <!-- r=0.980 -->
    <g transform="translate(66.840844 58.762375) scale(0.1 -0.1)">
     <defs>
      <path id="DejaVuSans-39" d="M 703 97 
L 703 672 
Q 941 559 1184 500 
Q 1428 441 1663 441 
Q 2288 441 2617 861 
Q 2947 1281 2994 2138 
Q 2813 1869 2534 1725 
Q 2256 1581 1919 1581 
Q 1219 1581 811 2004 
Q 403 2428 403 3163 
Q 403 3881 828 4315 
Q 1253 4750 1959 4750 
Q 2769 4750 3195 4129 
Q 3622 3509 3622 2328 
Q 3622 1225 3098 567 
Q 2575 -91 1691 -91 
Q 1453 -91 1209 -44 
Q 966 3 703 97 
z
M 1959 2075 
Q 2384 2075 2632 2365 
Q 2881 2656 2881 3163 
Q 2881 3666 2632 3958 
Q 2384 4250 1959 4250 
Q 1534 4250 1286 3958 
Q 1038 3666 1038 3163 
Q 1038 2656 1286 2365 
Q 1534 2075 1959 2075 
z
" transform="scale(0.015625)"/>
     </defs>
     <use xlink:href="#DejaVuSans-72"/>
     <use xlink:href="#DejaVuSans-3d" transform="translate(41.113281 0)"/>
     <use xlink:href="#DejaVuSans-30" transform="translate(124.902344 0)"/>
     <use xlink:href="#DejaVuSans-2e" transform="translate(188.525391 0)"/>
     <use xlink:href="#DejaVuSans-39" transform="translate(220.3125 0)"/>
     <use xlink:href="#DejaVuSans-38" transform="translate(283.935547 0)"/>
     <use xlink:href="#DejaVuSans-30" transform="translate(347.558594 0)"/>
    </g>
   </g>
   <g id="text_14">
    <!-- Permutation Entropy vs Flux -->
    <g transform="translate(75.051561 16.318125) scale(0.12 -0.12)">
     <defs>
      <path id="DejaVuSans-76" d="M 191 3500 
L 800 3500 
L 1894 563 
L 2988 3500 
L 3597 3500 
L 2284 0 
L 1503 0 
L 191 3500 
z
" transform="scale(0.015625)"/>
      <path id="DejaVuSans-46" d="M 628 4666 
L 3309 4666 
L 3309 4134 
L 1259 4134 
L 1259 2759 
L 3109 2759 
L 3109 2228 
L 1259 2228 
L 1259 0 
L 628 0 
L 628 4666 
z
" transform="scale(0.015625)"/>
     </defs>
     <use xlink:href="#DejaVuSans-50"/>
     <use xlink:href="#DejaVuSans-65" transform="translate(56.677734 0)"/>
     <use xlink:href="#DejaVuSans-72" transform="translate(118.201172 0)"/>
     <use xlink:href="#DejaVuSans-6d" transform="translate(157.564453 0)"/>
     <use xlink:href="#DejaVuSans-75" transform="translate(254.976562 0)"/>
     <use xlink:href="#DejaVuSans-74" transform="translate(318.355469 0)"/>
     <use xlink:href="#DejaVuSans-61" transform="translate(357.564453 0)"/>
     <use xlink:href="#DejaVuSans-74" transform="translate(418.84375 0)"/>
     <use xlink:href="#DejaVuSans-69" transform="translate(458.052734 0)"/>
     <use xlink:href="#DejaVuSans-6f" transform="translate(485.835938 0)"/>
     <use xlink:href="#DejaVuSans-6e" transform="translate(547.017578 0)"/>
     <use xlink:href="#DejaVuSans-20" transform="translate(610.396484 0)"/>
     <use xlink:href="#DejaVuSans-45" transform="translate(642.183594 0)"/>
     <use xlink:href="#DejaVuSans-6e" transform="translate(705.367188 0)"/>
     <use xlink:href="#DejaVuSans-74" transform="translate(768.746094 0)"/>
     <use xlink:href="#DejaVuSans-72" transform="translate(807.955078 0)"/>
     <use xlink:href="#DejaVuSans-6f" transform="translate(846.818359 0)"/>
     <use xlink:href="#DejaVuSans-70" transform="translate(908 0)"/>
     <use xlink:href="#DejaVuSans-79" transform="translate(971.476562 0)"/>
     <use xlink:href="#DejaVuSans-20" transform="translate(1030.65625 0)"/>
     <use xlink:href="#DejaVuSans-76" transform="translate(1062.443359 0)"/>
     <use xlink:href="#DejaVuSans-73" transform="translate(1121.623047 0)"/>
     <use xlink:href="#DejaVuSans-20" transform="translate(1173.722656 0)"/>
     <use xlink:href="#DejaVuSans-46" transform="translate(1205.509766 0)"/>
     <use xlink:href="#DejaVuSans-6c" transform="translate(1263.029297 0)"/>
     <use xlink:href="#DejaVuSans-75" transform="translate(1290.8125 0)"/>
     <use xlink:href="#DejaVuSans-78" transform="translate(1354.191406 0)"/>
    </g>
   </g>
  </g>
  <g id="axes_2">
   <g id="patch_7">
    <path d="M 345.16625 242.918125 
L 551.858122 242.918125 
L 551.858122 22.318125 
L 345.16625 22.318125 
z
" style="fill: #ffffff"/>
   </g>
   <g id="matplotlib.axis_3">
    <g id="xtick_6">
     <g id="line2d_13">
      <g>
       <use xlink:href="#m27da6ad4ce" x="354.561335" y="242.918125" style="stroke: #000000; stroke-width: 0.8"/>
      </g>
     </g>
     <g id="text_15">
      <!-- 0.0000 -->
      <g transform="translate(337.066023 257.516563) scale(0.1 -0.1)">
       <use xlink:href="#DejaVuSans-30"/>
       <use xlink:href="#DejaVuSans-2e" transform="translate(63.623047 0)"/>
       <use xlink:href="#DejaVuSans-30" transform="translate(95.410156 0)"/>
       <use xlink:href="#DejaVuSans-30" transform="translate(159.033203 0)"/>
       <use xlink:href="#DejaVuSans-30" transform="translate(222.65625 0)"/>
       <use xlink:href="#DejaVuSans-30" transform="translate(286.279297 0)"/>
      </g>
     </g>
    </g>
    <g id="xtick_7">
     <g id="line2d_14">
      <g>
       <use xlink:href="#m27da6ad4ce" x="401.53676" y="242.918125" style="stroke: #000000; stroke-width: 0.8"/>
      </g>
     </g>
     <g id="text_16">
      <!-- 0.0002 -->
      <g transform="translate(384.041448 257.516563) scale(0.1 -0.1)">
       <use xlink:href="#DejaVuSans-30"/>
       <use xlink:href="#DejaVuSans-2e" transform="translate(63.623047 0)"/>
       <use xlink:href="#DejaVuSans-30" transform="translate(95.410156 0)"/>
       <use xlink:href="#DejaVuSans-30" transform="translate(159.033203 0)"/>
       <use xlink:href="#DejaVuSans-30" transform="translate(222.65625 0)"/>
       <use xlink:href="#DejaVuSans-32" transform="translate(286.279297 0)"/>
      </g>
     </g>
    </g>
    <g id="xtick_8">
     <g id="line2d_15">
      <g>
       <use xlink:href="#m27da6ad4ce" x="448.512186" y="242.918125" style="stroke: #000000; stroke-width: 0.8"/>
      </g>
     </g>
     <g id="text_17">
      <!-- 0.0004 -->
      <g transform="translate(431.016873 257.516563) scale(0.1 -0.1)">
       <use xlink:href="#DejaVuSans-30"/>
       <use xlink:href="#DejaVuSans-2e" transform="translate(63.623047 0)"/>
       <use xlink:href="#DejaVuSans-30" transform="translate(95.410156 0)"/>
       <use xlink:href="#DejaVuSans-30" transform="translate(159.033203 0)"/>
       <use xlink:href="#DejaVuSans-30" transform="translate(222.65625 0)"/>
       <use xlink:href="#DejaVuSans-34" transform="translate(286.279297 0)"/>
      </g>
     </g>
    </g>
    <g id="xtick_9">
     <g id="line2d_16">
      <g>
       <use xlink:href="#m27da6ad4ce" x="495.487611" y="242.918125" style="stroke: #000000; stroke-width: 0.8"/>
      </g>
     </g>
     <g id="text_18">
      <!-- 0.0006 -->
      <g transform="translate(477.992299 257.516563) scale(0.1 -0.1)">
       <use xlink:href="#DejaVuSans-30"/>
       <use xlink:href="#DejaVuSans-2e" transform="translate(63.623047 0)"/>
       <use xlink:href="#DejaVuSans-30" transform="translate(95.410156 0)"/>
       <use xlink:href="#DejaVuSans-30" transform="translate(159.033203 0)"/>
       <use xlink:href="#DejaVuSans-30" transform="translate(222.65625 0)"/>
       <use xlink:href="#DejaVuSans-36" transform="translate(286.279297 0)"/>
      </g>
     </g>
    </g>
    <g id="xtick_10">
     <g id="line2d_17">
      <g>
       <use xlink:href="#m27da6ad4ce" x="542.463037" y="242.918125" style="stroke: #000000; stroke-width: 0.8"/>
      </g>
     </g>
     <g id="text_19">
      <!-- 0.0008 -->
      <g transform="translate(524.967724 257.516563) scale(0.1 -0.1)">
       <use xlink:href="#DejaVuSans-30"/>
       <use xlink:href="#DejaVuSans-2e" transform="translate(63.623047 0)"/>
       <use xlink:href="#DejaVuSans-30" transform="translate(95.410156 0)"/>
       <use xlink:href="#DejaVuSans-30" transform="translate(159.033203 0)"/>
       <use xlink:href="#DejaVuSans-30" transform="translate(222.65625 0)"/>
       <use xlink:href="#DejaVuSans-38" transform="translate(286.279297 0)"/>
      </g>
     </g>
    </g>
    <g id="text_20">
     <!-- Drift rate (flux) -->
     <g transform="translate(411.071561 271.194687) scale(0.1 -0.1)">
      <use xlink:href="#DejaVuSans-44"/>
      <use xlink:href="#DejaVuSans-72" transform="translate(77.001953 0)"/>
      <use xlink:href="#DejaVuSans-69" transform="translate(118.115234 0)"/>
      <use xlink:href="#DejaVuSans-66" transform="translate(145.898438 0)"/>
      <use xlink:href="#DejaVuSans-74" transform="translate(179.353516 0)"/>
      <use xlink:href="#DejaVuSans-20" transform="translate(218.5625 0)"/>
      <use xlink:href="#DejaVuSans-72" transform="translate(250.349609 0)"/>
      <use xlink:href="#DejaVuSans-61" transform="translate(291.462891 0)"/>
      <use xlink:href="#DejaVuSans-74" transform="translate(352.742188 0)"/>
      <use xlink:href="#DejaVuSans-65" transform="translate(391.951172 0)"/>
      <use xlink:href="#DejaVuSans-20" transform="translate(453.474609 0)"/>
      <use xlink:href="#DejaVuSans-28" transform="translate(485.261719 0)"/>
      <use xlink:href="#DejaVuSans-66" transform="translate(524.275391 0)"/>
      <use xlink:href="#DejaVuSans-6c" transform="translate(559.480469 0)"/>
      <use xlink:href="#DejaVuSans-75" transform="translate(587.263672 0)"/>
      <use xlink:href="#DejaVuSans-78" transform="translate(650.642578 0)"/>
      <use xlink:href="#DejaVuSans-29" transform="translate(709.822266 0)"/>
     </g>
    </g>
   </g>
   <g id="matplotlib.axis_4">
    <g id="ytick_6">
     <g id="line2d_18">
      <g>
       <use xlink:href="#m153d993c8b" x="345.16625" y="212.836307" style="stroke: #000000; stroke-width: 0.8"/>
      </g>
     </g>
     <g id="text_21">
      <!-- 0.48 -->
      <g transform="translate(315.900625 216.635526) scale(0.1 -0.1)">
       <use xlink:href="#DejaVuSans-30"/>
       <use xlink:href="#DejaVuSans-2e" transform="translate(63.623047 0)"/>
       <use xlink:href="#DejaVuSans-34" transform="translate(95.410156 0)"/>
       <use xlink:href="#DejaVuSans-38" transform="translate(159.033203 0)"/>
      </g>
     </g>
    </g>
    <g id="ytick_7">
     <g id="line2d_19">
      <g>
       <use xlink:href="#m153d993c8b" x="345.16625" y="172.727216" style="stroke: #000000; stroke-width: 0.8"/>
      </g>
     </g>
     <g id="text_22">
      <!-- 0.49 -->
      <g transform="translate(315.900625 176.526435) scale(0.1 -0.1)">
       <use xlink:href="#DejaVuSans-30"/>
       <use xlink:href="#DejaVuSans-2e" transform="translate(63.623047 0)"/>
       <use xlink:href="#DejaVuSans-34" transform="translate(95.410156 0)"/>
       <use xlink:href="#DejaVuSans-39" transform="translate(159.033203 0)"/>
      </g>
     </g>
    </g>
    <g id="ytick_8">
     <g id="line2d_20">
      <g>
       <use xlink:href="#m153d993c8b" x="345.16625" y="132.618125" style="stroke: #000000; stroke-width: 0.8"/>
      </g>
     </g>
     <g id="text_23">
      <!-- 0.50 -->
      <g transform="translate(315.900625 136.417344) scale(0.1 -0.1)">
       <use xlink:href="#DejaVuSans-30"/>
       <use xlink:href="#DejaVuSans-2e" transform="translate(63.623047 0)"/>
       <use xlink:href="#DejaVuSans-35" transform="translate(95.410156 0)"/>
       <use xlink:href="#DejaVuSans-30" transform="translate(159.033203 0)"/>
      </g>
     </g>
    </g>
    <g id="ytick_9">
     <g id="line2d_21">
      <g>
       <use xlink:href="#m153d993c8b" x="345.16625" y="92.509034" style="stroke: #000000; stroke-width: 0.8"/>
      </g>
     </g>
     <g id="text_24">
      <!-- 0.51 -->
      <g transform="translate(315.900625 96.308253) scale(0.1 -0.1)">
       <use xlink:href="#DejaVuSans-30"/>
       <use xlink:href="#DejaVuSans-2e" transform="translate(63.623047 0)"/>
       <use xlink:href="#DejaVuSans-35" transform="translate(95.410156 0)"/>
       <use xlink:href="#DejaVuSans-31" transform="translate(159.033203 0)"/>
      </g>
     </g>
    </g>
    <g id="ytick_10">
     <g id="line2d_22">
      <g>
       <use xlink:href="#m153d993c8b" x="345.16625" y="52.399943" style="stroke: #000000; stroke-width: 0.8"/>
      </g>
     </g>
     <g id="text_25">
      <!-- 0.52 -->
      <g transform="translate(315.900625 56.199162) scale(0.1 -0.1)">
       <use xlink:href="#DejaVuSans-30"/>
       <use xlink:href="#DejaVuSans-2e" transform="translate(63.623047 0)"/>
       <use xlink:href="#DejaVuSans-35" transform="translate(95.410156 0)"/>
       <use xlink:href="#DejaVuSans-32" transform="translate(159.033203 0)"/>
      </g>
     </g>
    </g>
    <g id="text_26">
     <!-- Recurrence Rate -->
     <g transform="translate(309.820938 173.895469) rotate(-90) scale(0.1 -0.1)">
      <defs>
       <path id="DejaVuSans-52" d="M 2841 2188 
Q 3044 2119 3236 1894 
Q 3428 1669 3622 1275 
L 4263 0 
L 3584 0 
L 2988 1197 
Q 2756 1666 2539 1819 
Q 2322 1972 1947 1972 
L 1259 1972 
L 1259 0 
L 628 0 
L 628 4666 
L 2053 4666 
Q 2853 4666 3247 4331 
Q 3641 3997 3641 3322 
Q 3641 2881 3436 2590 
Q 3231 2300 2841 2188 
z
M 1259 4147 
L 1259 2491 
L 2053 2491 
Q 2509 2491 2742 2702 
Q 2975 2913 2975 3322 
Q 2975 3731 2742 3939 
Q 2509 4147 2053 4147 
L 1259 4147 
z
" transform="scale(0.015625)"/>
       <path id="DejaVuSans-63" d="M 3122 3366 
L 3122 2828 
Q 2878 2963 2633 3030 
Q 2388 3097 2138 3097 
Q 1578 3097 1268 2742 
Q 959 2388 959 1747 
Q 959 1106 1268 751 
Q 1578 397 2138 397 
Q 2388 397 2633 464 
Q 2878 531 3122 666 
L 3122 134 
Q 2881 22 2623 -34 
Q 2366 -91 2075 -91 
Q 1284 -91 818 406 
Q 353 903 353 1747 
Q 353 2603 823 3093 
Q 1294 3584 2113 3584 
Q 2378 3584 2631 3529 
Q 2884 3475 3122 3366 
z
" transform="scale(0.015625)"/>
      </defs>
      <use xlink:href="#DejaVuSans-52"/>
      <use xlink:href="#DejaVuSans-65" transform="translate(64.982422 0)"/>
      <use xlink:href="#DejaVuSans-63" transform="translate(126.505859 0)"/>
      <use xlink:href="#DejaVuSans-75" transform="translate(181.486328 0)"/>
      <use xlink:href="#DejaVuSans-72" transform="translate(244.865234 0)"/>
      <use xlink:href="#DejaVuSans-72" transform="translate(284.228516 0)"/>
      <use xlink:href="#DejaVuSans-65" transform="translate(323.091797 0)"/>
      <use xlink:href="#DejaVuSans-6e" transform="translate(384.615234 0)"/>
      <use xlink:href="#DejaVuSans-63" transform="translate(447.994141 0)"/>
      <use xlink:href="#DejaVuSans-65" transform="translate(502.974609 0)"/>
      <use xlink:href="#DejaVuSans-20" transform="translate(564.498047 0)"/>
      <use xlink:href="#DejaVuSans-52" transform="translate(596.285156 0)"/>
      <use xlink:href="#DejaVuSans-61" transform="translate(663.517578 0)"/>
      <use xlink:href="#DejaVuSans-74" transform="translate(724.796875 0)"/>
      <use xlink:href="#DejaVuSans-65" transform="translate(764.005859 0)"/>
     </g>
    </g>
   </g>
   <g id="line2d_23">
    <path d="M 354.561335 132.618125 
L 378.049048 132.618125 
L 401.53676 132.618125 
L 448.512186 132.618125 
L 542.463037 132.618125 
" clip-path="url(#p40d2a46ebd)" style="fill: none; stroke: #1f77b4; stroke-width: 2; stroke-linecap: square"/>
    <g clip-path="url(#p40d2a46ebd)">
     <use xlink:href="#m8a209e569f" x="354.561335" y="132.618125" style="fill: #1f77b4; stroke: #1f77b4"/>
     <use xlink:href="#m8a209e569f" x="378.049048" y="132.618125" style="fill: #1f77b4; stroke: #1f77b4"/>
     <use xlink:href="#m8a209e569f" x="401.53676" y="132.618125" style="fill: #1f77b4; stroke: #1f77b4"/>
     <use xlink:href="#m8a209e569f" x="448.512186" y="132.618125" style="fill: #1f77b4; stroke: #1f77b4"/>
     <use xlink:href="#m8a209e569f" x="542.463037" y="132.618125" style="fill: #1f77b4; stroke: #1f77b4"/>
    </g>
   </g>
   <g id="line2d_24">
    <path d="M 354.561335 132.618125 
L 356.459332 132.618125 
L 358.357329 132.618125 
L 360.255326 132.618125 
L 362.153323 132.618125 
L 364.05132 132.618125 
L 365.949317 132.618125 
L 367.847314 132.618125 
L 369.745311 132.618125 
L 371.643308 132.618125 
L 373.541305 132.618125 
L 375.439302 132.618125 
L 377.337299 132.618125 
L 379.235296 132.618125 
L 381.133293 132.618125 
L 383.03129 132.618125 
L 384.929287 132.618125 
L 386.827284 132.618125 
L 388.725281 132.618125 
L 390.623278 132.618125 
L 392.521275 132.618125 
L 394.419272 132.618125 
L 396.317269 132.618125 
L 398.215266 132.618125 
L 400.113263 132.618125 
L 402.01126 132.618125 
L 403.909257 132.618125 
L 405.807254 132.618125 
L 407.705251 132.618125 
L 409.603248 132.618125 
L 411.501245 132.618125 
L 413.399242 132.618125 
L 415.297239 132.618125 
L 417.195236 132.618125 
L 419.093233 132.618125 
L 420.99123 132.618125 
L 422.889227 132.618125 
L 424.787224 132.618125 
L 426.685221 132.618125 
L 428.583217 132.618125 
L 430.481214 132.618125 
L 432.379211 132.618125 
L 434.277208 132.618125 
L 436.175205 132.618125 
L 438.073202 132.618125 
L 439.971199 132.618125 
L 441.869196 132.618125 
L 443.767193 132.618125 
L 445.66519 132.618125 
L 447.563187 132.618125 
L 449.461184 132.618125 
L 451.359181 132.618125 
L 453.257178 132.618125 
L 455.155175 132.618125 
L 457.053172 132.618125 
L 458.951169 132.618125 
L 460.849166 132.618125 
L 462.747163 132.618125 
L 464.64516 132.618125 
L 466.543157 132.618125 
L 468.441154 132.618125 
L 470.339151 132.618125 
L 472.237148 132.618125 
L 474.135145 132.618125 
L 476.033142 132.618125 
L 477.931139 132.618125 
L 479.829136 132.618125 
L 481.727133 132.618125 
L 483.62513 132.618125 
L 485.523127 132.618125 
L 487.421124 132.618125 
L 489.319121 132.618125 
L 491.217118 132.618125 
L 493.115115 132.618125 
L 495.013112 132.618125 
L 496.911109 132.618125 
L 498.809106 132.618125 
L 500.707103 132.618125 
L 502.6051 132.618125 
L 504.503097 132.618125 
L 506.401094 132.618125 
L 508.299091 132.618125 
L 510.197088 132.618125 
L 512.095085 132.618125 
L 513.993082 132.618125 
L 515.891079 132.618125 
L 517.789076 132.618125 
L 519.687073 132.618125 
L 521.58507 132.618125 
L 523.483067 132.618125 
L 525.381064 132.618125 
L 527.279061 132.618125 
L 529.177058 132.618125 
L 531.075055 132.618125 
L 532.973052 132.618125 
L 534.871049 132.618125 
L 536.769046 132.618125 
L 538.667043 132.618125 
L 540.56504 132.618125 
L 542.463037 132.618125 
" clip-path="url(#p40d2a46ebd)" style="fill: none; stroke-dasharray: 5.55,2.4; stroke-dashoffset: 0; stroke: #ff7f0e; stroke-width: 1.5"/>
   </g>
   <g id="patch_8">
    <path d="M 345.16625 242.918125 
L 345.16625 22.318125 
" style="fill: none; stroke: #000000; stroke-width: 0.8; stroke-linejoin: miter; stroke-linecap: square"/>
   </g>
   <g id="patch_9">
    <path d="M 551.858122 242.918125 
L 551.858122 22.318125 
" style="fill: none; stroke: #000000; stroke-width: 0.8; stroke-linejoin: miter; stroke-linecap: square"/>
   </g>
   <g id="patch_10">
    <path d="M 345.16625 242.918125 
L 551.858122 242.918125 
" style="fill: none; stroke: #000000; stroke-width: 0.8; stroke-linejoin: miter; stroke-linecap: square"/>
   </g>
   <g id="patch_11">
    <path d="M 345.16625 22.318125 
L 551.858122 22.318125 
" style="fill: none; stroke: #000000; stroke-width: 0.8; stroke-linejoin: miter; stroke-linecap: square"/>
   </g>
   <g id="text_27">
    <!-- slope=-4.23e-13 -->
    <g transform="translate(355.500844 47.564562) scale(0.1 -0.1)">
     <defs>
      <path id="DejaVuSans-2d" d="M 313 2009 
L 1997 2009 
L 1997 1497 
L 313 1497 
L 313 2009 
z
" transform="scale(0.015625)"/>
     </defs>
     <use xlink:href="#DejaVuSans-73"/>
     <use xlink:href="#DejaVuSans-6c" transform="translate(52.099609 0)"/>
     <use xlink:href="#DejaVuSans-6f" transform="translate(79.882812 0)"/>
     <use xlink:href="#DejaVuSans-70" transform="translate(141.064453 0)"/>
     <use xlink:href="#DejaVuSans-65" transform="translate(204.541016 0)"/>
     <use xlink:href="#DejaVuSans-3d" transform="translate(266.064453 0)"/>
     <use xlink:href="#DejaVuSans-2d" transform="translate(349.853516 0)"/>
     <use xlink:href="#DejaVuSans-34" transform="translate(385.9375 0)"/>
     <use xlink:href="#DejaVuSans-2e" transform="translate(449.560547 0)"/>
     <use xlink:href="#DejaVuSans-32" transform="translate(481.347656 0)"/>
     <use xlink:href="#DejaVuSans-33" transform="translate(544.970703 0)"/>
     <use xlink:href="#DejaVuSans-65" transform="translate(608.59375 0)"/>
     <use xlink:href="#DejaVuSans-2d" transform="translate(670.117188 0)"/>
     <use xlink:href="#DejaVuSans-31" transform="translate(706.201172 0)"/>
     <use xlink:href="#DejaVuSans-33" transform="translate(769.824219 0)"/>
    </g>
    <!-- r=undefined -->
    <g transform="translate(355.500844 58.762375) scale(0.1 -0.1)">
     <defs>
      <path id="DejaVuSans-64" d="M 2906 2969 
L 2906 4863 
L 3481 4863 
L 3481 0 
L 2906 0 
L 2906 525 
Q 2725 213 2448 61 
Q 2172 -91 1784 -91 
Q 1150 -91 751 415 
Q 353 922 353 1747 
Q 353 2572 751 3078 
Q 1150 3584 1784 3584 
Q 2172 3584 2448 3432 
Q 2725 3281 2906 2969 
z
M 947 1747 
Q 947 1113 1208 752 
Q 1469 391 1925 391 
Q 2381 391 2643 752 
Q 2906 1113 2906 1747 
Q 2906 2381 2643 2742 
Q 2381 3103 1925 3103 
Q 1469 3103 1208 2742 
Q 947 2381 947 1747 
z
" transform="scale(0.015625)"/>
     </defs>
     <use xlink:href="#DejaVuSans-72"/>
     <use xlink:href="#DejaVuSans-3d" transform="translate(41.113281 0)"/>
     <use xlink:href="#DejaVuSans-75" transform="translate(124.902344 0)"/>
     <use xlink:href="#DejaVuSans-6e" transform="translate(188.28125 0)"/>
     <use xlink:href="#DejaVuSans-64" transform="translate(251.660156 0)"/>
     <use xlink:href="#DejaVuSans-65" transform="translate(315.136719 0)"/>
     <use xlink:href="#DejaVuSans-66" transform="translate(376.660156 0)"/>
     <use xlink:href="#DejaVuSans-69" transform="translate(411.865234 0)"/>
     <use xlink:href="#DejaVuSans-6e" transform="translate(439.648438 0)"/>
     <use xlink:href="#DejaVuSans-65" transform="translate(503.027344 0)"/>
     <use xlink:href="#DejaVuSans-64" transform="translate(564.550781 0)"/>
    </g>
   </g>
   <g id="text_28">
    <!-- Recurrence Rate vs Flux -->
    <g transform="translate(376.017186 16.318125) scale(0.12 -0.12)">
     <use xlink:href="#DejaVuSans-52"/>
     <use xlink:href="#DejaVuSans-65" transform="translate(64.982422 0)"/>
     <use xlink:href="#DejaVuSans-63" transform="translate(126.505859 0)"/>
     <use xlink:href="#DejaVuSans-75" transform="translate(181.486328 0)"/>
     <use xlink:href="#DejaVuSans-72" transform="translate(244.865234 0)"/>
     <use xlink:href="#DejaVuSans-72" transform="translate(284.228516 0)"/>
     <use xlink:href="#DejaVuSans-65" transform="translate(323.091797 0)"/>
     <use xlink:href="#DejaVuSans-6e" transform="translate(384.615234 0)"/>
     <use xlink:href="#DejaVuSans-63" transform="translate(447.994141 0)"/>
     <use xlink:href="#DejaVuSans-65" transform="translate(502.974609 0)"/>
     <use xlink:href="#DejaVuSans-20" transform="translate(564.498047 0)"/>
     <use xlink:href="#DejaVuSans-52" transform="translate(596.285156 0)"/>
     <use xlink:href="#DejaVuSans-61" transform="translate(663.517578 0)"/>
     <use xlink:href="#DejaVuSans-74" transform="translate(724.796875 0)"/>
     <use xlink:href="#DejaVuSans-65" transform="translate(764.005859 0)"/>
     <use xlink:href="#DejaVuSans-20" transform="translate(825.529297 0)"/>
     <use xlink:href="#DejaVuSans-76" transform="translate(857.316406 0)"/>
     <use xlink:href="#DejaVuSans-73" transform="translate(916.496094 0)"/>
     <use xlink:href="#DejaVuSans-20" transform="translate(968.595703 0)"/>
     <use xlink:href="#DejaVuSans-46" transform="translate(1000.382812 0)"/>
     <use xlink:href="#DejaVuSans-6c" transform="translate(1057.902344 0)"/>
     <use xlink:href="#DejaVuSans-75" transform="translate(1085.685547 0)"/>
     <use xlink:href="#DejaVuSans-78" transform="translate(1149.064453 0)"/>
    </g>
   </g>
  </g>
  <g id="axes_3">
   <g id="patch_12">
    <path d="M 633.82625 242.918125 
L 840.518122 242.918125 
L 840.518122 22.318125 
L 633.82625 22.318125 
z
" style="fill: #ffffff"/>
   </g>
   <g id="matplotlib.axis_5">
    <g id="xtick_11">
     <g id="line2d_25">
      <g>
       <use xlink:href="#m27da6ad4ce" x="643.221335" y="242.918125" style="stroke: #000000; stroke-width: 0.8"/>
      </g>
     </g>
     <g id="text_29">
      <!-- 0.0000 -->
      <g transform="translate(625.726023 257.516563) scale(0.1 -0.1)">
       <use xlink:href="#DejaVuSans-30"/>
       <use xlink:href="#DejaVuSans-2e" transform="translate(63.623047 0)"/>
       <use xlink:href="#DejaVuSans-30" transform="translate(95.410156 0)"/>
       <use xlink:href="#DejaVuSans-30" transform="translate(159.033203 0)"/>
       <use xlink:href="#DejaVuSans-30" transform="translate(222.65625 0)"/>
       <use xlink:href="#DejaVuSans-30" transform="translate(286.279297 0)"/>
      </g>
     </g>
    </g>
    <g id="xtick_12">
     <g id="line2d_26">
      <g>
       <use xlink:href="#m27da6ad4ce" x="690.19676" y="242.918125" style="stroke: #000000; stroke-width: 0.8"/>
      </g>
     </g>
     <g id="text_30">
      <!-- 0.0002 -->
      <g transform="translate(672.701448 257.516563) scale(0.1 -0.1)">
       <use xlink:href="#DejaVuSans-30"/>
       <use xlink:href="#DejaVuSans-2e" transform="translate(63.623047 0)"/>
       <use xlink:href="#DejaVuSans-30" transform="translate(95.410156 0)"/>
       <use xlink:href="#DejaVuSans-30" transform="translate(159.033203 0)"/>
       <use xlink:href="#DejaVuSans-30" transform="translate(222.65625 0)"/>
       <use xlink:href="#DejaVuSans-32" transform="translate(286.279297 0)"/>
      </g>
     </g>
    </g>
    <g id="xtick_13">
     <g id="line2d_27">
      <g>
       <use xlink:href="#m27da6ad4ce" x="737.172186" y="242.918125" style="stroke: #000000; stroke-width: 0.8"/>
      </g>
     </g>
     <g id="text_31">
      <!-- 0.0004 -->
      <g transform="translate(719.676873 257.516563) scale(0.1 -0.1)">
       <use xlink:href="#DejaVuSans-30"/>
       <use xlink:href="#DejaVuSans-2e" transform="translate(63.623047 0)"/>
       <use xlink:href="#DejaVuSans-30" transform="translate(95.410156 0)"/>
       <use xlink:href="#DejaVuSans-30" transform="translate(159.033203 0)"/>
       <use xlink:href="#DejaVuSans-30" transform="translate(222.65625 0)"/>
       <use xlink:href="#DejaVuSans-34" transform="translate(286.279297 0)"/>
      </g>
     </g>
    </g>
    <g id="xtick_14">
     <g id="line2d_28">
      <g>
       <use xlink:href="#m27da6ad4ce" x="784.147611" y="242.918125" style="stroke: #000000; stroke-width: 0.8"/>
      </g>
     </g>
     <g id="text_32">
      <!-- 0.0006 -->
      <g transform="translate(766.652299 257.516563) scale(0.1 -0.1)">
       <use xlink:href="#DejaVuSans-30"/>
       <use xlink:href="#DejaVuSans-2e" transform="translate(63.623047 0)"/>
       <use xlink:href="#DejaVuSans-30" transform="translate(95.410156 0)"/>
       <use xlink:href="#DejaVuSans-30" transform="translate(159.033203 0)"/>
       <use xlink:href="#DejaVuSans-30" transform="translate(222.65625 0)"/>
       <use xlink:href="#DejaVuSans-36" transform="translate(286.279297 0)"/>
      </g>
     </g>
    </g>
    <g id="xtick_15">
     <g id="line2d_29">
      <g>
       <use xlink:href="#m27da6ad4ce" x="831.123037" y="242.918125" style="stroke: #000000; stroke-width: 0.8"/>
      </g>
     </g>
     <g id="text_33">
      <!-- 0.0008 -->
      <g transform="translate(813.627724 257.516563) scale(0.1 -0.1)">
       <use xlink:href="#DejaVuSans-30"/>
       <use xlink:href="#DejaVuSans-2e" transform="translate(63.623047 0)"/>
       <use xlink:href="#DejaVuSans-30" transform="translate(95.410156 0)"/>
       <use xlink:href="#DejaVuSans-30" transform="translate(159.033203 0)"/>
       <use xlink:href="#DejaVuSans-30" transform="translate(222.65625 0)"/>
       <use xlink:href="#DejaVuSans-38" transform="translate(286.279297 0)"/>
      </g>
     </g>
    </g>
    <g id="text_34">
     <!-- Drift rate (flux) -->
     <g transform="translate(699.731561 271.194687) scale(0.1 -0.1)">
      <use xlink:href="#DejaVuSans-44"/>
      <use xlink:href="#DejaVuSans-72" transform="translate(77.001953 0)"/>
      <use xlink:href="#DejaVuSans-69" transform="translate(118.115234 0)"/>
      <use xlink:href="#DejaVuSans-66" transform="translate(145.898438 0)"/>
      <use xlink:href="#DejaVuSans-74" transform="translate(179.353516 0)"/>
      <use xlink:href="#DejaVuSans-20" transform="translate(218.5625 0)"/>
      <use xlink:href="#DejaVuSans-72" transform="translate(250.349609 0)"/>
      <use xlink:href="#DejaVuSans-61" transform="translate(291.462891 0)"/>
      <use xlink:href="#DejaVuSans-74" transform="translate(352.742188 0)"/>
      <use xlink:href="#DejaVuSans-65" transform="translate(391.951172 0)"/>
      <use xlink:href="#DejaVuSans-20" transform="translate(453.474609 0)"/>
      <use xlink:href="#DejaVuSans-28" transform="translate(485.261719 0)"/>
      <use xlink:href="#DejaVuSans-66" transform="translate(524.275391 0)"/>
      <use xlink:href="#DejaVuSans-6c" transform="translate(559.480469 0)"/>
      <use xlink:href="#DejaVuSans-75" transform="translate(587.263672 0)"/>
      <use xlink:href="#DejaVuSans-78" transform="translate(650.642578 0)"/>
      <use xlink:href="#DejaVuSans-29" transform="translate(709.822266 0)"/>
     </g>
    </g>
   </g>
   <g id="matplotlib.axis_6">
    <g id="ytick_11">
     <g id="line2d_30">
      <g>
       <use xlink:href="#m153d993c8b" x="633.82625" y="233.440857" style="stroke: #000000; stroke-width: 0.8"/>
      </g>
     </g>
     <g id="text_35">
      <!-- 0.00005 -->
      <g transform="translate(585.473125 237.240076) scale(0.1 -0.1)">
       <use xlink:href="#DejaVuSans-30"/>
       <use xlink:href="#DejaVuSans-2e" transform="translate(63.623047 0)"/>
       <use xlink:href="#DejaVuSans-30" transform="translate(95.410156 0)"/>
       <use xlink:href="#DejaVuSans-30" transform="translate(159.033203 0)"/>
       <use xlink:href="#DejaVuSans-30" transform="translate(222.65625 0)"/>
       <use xlink:href="#DejaVuSans-30" transform="translate(286.279297 0)"/>
       <use xlink:href="#DejaVuSans-35" transform="translate(349.902344 0)"/>
      </g>
     </g>
    </g>
    <g id="ytick_12">
     <g id="line2d_31">
      <g>
       <use xlink:href="#m153d993c8b" x="633.82625" y="199.513481" style="stroke: #000000; stroke-width: 0.8"/>
      </g>
     </g>
     <g id="text_36">
      <!-- 0.00010 -->
      <g transform="translate(585.473125 203.3127) scale(0.1 -0.1)">
       <use xlink:href="#DejaVuSans-30"/>
       <use xlink:href="#DejaVuSans-2e" transform="translate(63.623047 0)"/>
       <use xlink:href="#DejaVuSans-30" transform="translate(95.410156 0)"/>
       <use xlink:href="#DejaVuSans-30" transform="translate(159.033203 0)"/>
       <use xlink:href="#DejaVuSans-30" transform="translate(222.65625 0)"/>
       <use xlink:href="#DejaVuSans-31" transform="translate(286.279297 0)"/>
       <use xlink:href="#DejaVuSans-30" transform="translate(349.902344 0)"/>
      </g>
     </g>
    </g>
    <g id="ytick_13">
     <g id="line2d_32">
      <g>
       <use xlink:href="#m153d993c8b" x="633.82625" y="165.586105" style="stroke: #000000; stroke-width: 0.8"/>
      </g>
     </g>
     <g id="text_37">
      <!-- 0.00015 -->
      <g transform="translate(585.473125 169.385324) scale(0.1 -0.1)">
       <use xlink:href="#DejaVuSans-30"/>
       <use xlink:href="#DejaVuSans-2e" transform="translate(63.623047 0)"/>
       <use xlink:href="#DejaVuSans-30" transform="translate(95.410156 0)"/>
       <use xlink:href="#DejaVuSans-30" transform="translate(159.033203 0)"/>
       <use xlink:href="#DejaVuSans-30" transform="translate(222.65625 0)"/>
       <use xlink:href="#DejaVuSans-31" transform="translate(286.279297 0)"/>
       <use xlink:href="#DejaVuSans-35" transform="translate(349.902344 0)"/>
      </g>
     </g>
    </g>
    <g id="ytick_14">
     <g id="line2d_33">
      <g>
       <use xlink:href="#m153d993c8b" x="633.82625" y="131.658729" style="stroke: #000000; stroke-width: 0.8"/>
      </g>
     </g>
     <g id="text_38">
      <!-- 0.00020 -->
      <g transform="translate(585.473125 135.457948) scale(0.1 -0.1)">
       <use xlink:href="#DejaVuSans-30"/>
       <use xlink:href="#DejaVuSans-2e" transform="translate(63.623047 0)"/>
       <use xlink:href="#DejaVuSans-30" transform="translate(95.410156 0)"/>
       <use xlink:href="#DejaVuSans-30" transform="translate(159.033203 0)"/>
       <use xlink:href="#DejaVuSans-30" transform="translate(222.65625 0)"/>
       <use xlink:href="#DejaVuSans-32" transform="translate(286.279297 0)"/>
       <use xlink:href="#DejaVuSans-30" transform="translate(349.902344 0)"/>
      </g>
     </g>
    </g>
    <g id="ytick_15">
     <g id="line2d_34">
      <g>
       <use xlink:href="#m153d993c8b" x="633.82625" y="97.731353" style="stroke: #000000; stroke-width: 0.8"/>
      </g>
     </g>
     <g id="text_39">
      <!-- 0.00025 -->
      <g transform="translate(585.473125 101.530572) scale(0.1 -0.1)">
       <use xlink:href="#DejaVuSans-30"/>
       <use xlink:href="#DejaVuSans-2e" transform="translate(63.623047 0)"/>
       <use xlink:href="#DejaVuSans-30" transform="translate(95.410156 0)"/>
       <use xlink:href="#DejaVuSans-30" transform="translate(159.033203 0)"/>
       <use xlink:href="#DejaVuSans-30" transform="translate(222.65625 0)"/>
       <use xlink:href="#DejaVuSans-32" transform="translate(286.279297 0)"/>
       <use xlink:href="#DejaVuSans-35" transform="translate(349.902344 0)"/>
      </g>
     </g>
    </g>
    <g id="ytick_16">
     <g id="line2d_35">
      <g>
       <use xlink:href="#m153d993c8b" x="633.82625" y="63.803977" style="stroke: #000000; stroke-width: 0.8"/>
      </g>
     </g>
     <g id="text_40">
      <!-- 0.00030 -->
      <g transform="translate(585.473125 67.603196) scale(0.1 -0.1)">
       <use xlink:href="#DejaVuSans-30"/>
       <use xlink:href="#DejaVuSans-2e" transform="translate(63.623047 0)"/>
       <use xlink:href="#DejaVuSans-30" transform="translate(95.410156 0)"/>
       <use xlink:href="#DejaVuSans-30" transform="translate(159.033203 0)"/>
       <use xlink:href="#DejaVuSans-30" transform="translate(222.65625 0)"/>
       <use xlink:href="#DejaVuSans-33" transform="translate(286.279297 0)"/>
       <use xlink:href="#DejaVuSans-30" transform="translate(349.902344 0)"/>
      </g>
     </g>
    </g>
    <g id="ytick_17">
     <g id="line2d_36">
      <g>
       <use xlink:href="#m153d993c8b" x="633.82625" y="29.876601" style="stroke: #000000; stroke-width: 0.8"/>
      </g>
     </g>
     <g id="text_41">
      <!-- 0.00035 -->
      <g transform="translate(585.473125 33.67582) scale(0.1 -0.1)">
       <use xlink:href="#DejaVuSans-30"/>
       <use xlink:href="#DejaVuSans-2e" transform="translate(63.623047 0)"/>
       <use xlink:href="#DejaVuSans-30" transform="translate(95.410156 0)"/>
       <use xlink:href="#DejaVuSans-30" transform="translate(159.033203 0)"/>
       <use xlink:href="#DejaVuSans-30" transform="translate(222.65625 0)"/>
       <use xlink:href="#DejaVuSans-33" transform="translate(286.279297 0)"/>
       <use xlink:href="#DejaVuSans-35" transform="translate(349.902344 0)"/>
      </g>
     </g>
    </g>
    <g id="text_42">
     <!-- Mean 1Fidelity -->
     <g transform="translate(579.393437 171.362656) rotate(-90) scale(0.1 -0.1)">
      <defs>
       <path id="DejaVuSans-4d" d="M 628 4666 
L 1569 4666 
L 2759 1491 
L 3956 4666 
L 4897 4666 
L 4897 0 
L 4281 0 
L 4281 4097 
L 3078 897 
L 2444 897 
L 1241 4097 
L 1241 0 
L 628 0 
L 628 4666 
z
" transform="scale(0.015625)"/>
       <path id="DejaVuSans-2013" d="M 313 1978 
L 2888 1978 
L 2888 1528 
L 313 1528 
L 313 1978 
z
" transform="scale(0.015625)"/>
      </defs>
      <use xlink:href="#DejaVuSans-4d"/>
      <use xlink:href="#DejaVuSans-65" transform="translate(86.279297 0)"/>
      <use xlink:href="#DejaVuSans-61" transform="translate(147.802734 0)"/>
      <use xlink:href="#DejaVuSans-6e" transform="translate(209.082031 0)"/>
      <use xlink:href="#DejaVuSans-20" transform="translate(272.460938 0)"/>
      <use xlink:href="#DejaVuSans-31" transform="translate(304.248047 0)"/>
      <use xlink:href="#DejaVuSans-2013" transform="translate(367.871094 0)"/>
      <use xlink:href="#DejaVuSans-46" transform="translate(417.871094 0)"/>
      <use xlink:href="#DejaVuSans-69" transform="translate(468.140625 0)"/>
      <use xlink:href="#DejaVuSans-64" transform="translate(495.923828 0)"/>
      <use xlink:href="#DejaVuSans-65" transform="translate(559.400391 0)"/>
      <use xlink:href="#DejaVuSans-6c" transform="translate(620.923828 0)"/>
      <use xlink:href="#DejaVuSans-69" transform="translate(648.707031 0)"/>
      <use xlink:href="#DejaVuSans-74" transform="translate(676.490234 0)"/>
      <use xlink:href="#DejaVuSans-79" transform="translate(715.699219 0)"/>
     </g>
    </g>
   </g>
   <g id="line2d_37">
    <path d="M 643.221335 232.890852 
L 666.709048 198.978504 
L 690.19676 160.330681 
L 737.172186 72.683152 
L 831.123037 57.458662 
" clip-path="url(#pd9e6c3f3ed)" style="fill: none; stroke: #1f77b4; stroke-width: 2; stroke-linecap: square"/>
    <g clip-path="url(#pd9e6c3f3ed)">
     <use xlink:href="#m8a209e569f" x="643.221335" y="232.890852" style="fill: #1f77b4; stroke: #1f77b4"/>
     <use xlink:href="#m8a209e569f" x="666.709048" y="198.978504" style="fill: #1f77b4; stroke: #1f77b4"/>
     <use xlink:href="#m8a209e569f" x="690.19676" y="160.330681" style="fill: #1f77b4; stroke: #1f77b4"/>
     <use xlink:href="#m8a209e569f" x="737.172186" y="72.683152" style="fill: #1f77b4; stroke: #1f77b4"/>
     <use xlink:href="#m8a209e569f" x="831.123037" y="57.458662" style="fill: #1f77b4; stroke: #1f77b4"/>
    </g>
   </g>
   <g id="line2d_38">
    <path d="M 643.221335 211.742154 
L 645.119332 209.930066 
L 647.017329 208.117977 
L 648.915326 206.305889 
L 650.813323 204.4938 
L 652.71132 202.681712 
L 654.609317 200.869623 
L 656.507314 199.057535 
L 658.405311 197.245446 
L 660.303308 195.433358 
L 662.201305 193.621269 
L 664.099302 191.809181 
L 665.997299 189.997093 
L 667.895296 188.185004 
L 669.793293 186.372916 
L 671.69129 184.560827 
L 673.589287 182.748739 
L 675.487284 180.93665 
L 677.385281 179.124562 
L 679.283278 177.312473 
L 681.181275 175.500385 
L 683.079272 173.688297 
L 684.977269 171.876208 
L 686.875266 170.06412 
L 688.773263 168.252031 
L 690.67126 166.439943 
L 692.569257 164.627854 
L 694.467254 162.815766 
L 696.365251 161.003677 
L 698.263248 159.191589 
L 700.161245 157.379501 
L 702.059242 155.567412 
L 703.957239 153.755324 
L 705.855236 151.943235 
L 707.753233 150.131147 
L 709.65123 148.319058 
L 711.549227 146.50697 
L 713.447224 144.694881 
L 715.345221 142.882793 
L 717.243217 141.070705 
L 719.141214 139.258616 
L 721.039211 137.446528 
L 722.937208 135.634439 
L 724.835205 133.822351 
L 726.733202 132.010262 
L 728.631199 130.198174 
L 730.529196 128.386085 
L 732.427193 126.573997 
L 734.32519 124.761909 
L 736.223187 122.94982 
L 738.121184 121.137732 
L 740.019181 119.325643 
L 741.917178 117.513555 
L 743.815175 115.701466 
L 745.713172 113.889378 
L 747.611169 112.077289 
L 749.509166 110.265201 
L 751.407163 108.453112 
L 753.30516 106.641024 
L 755.203157 104.828936 
L 757.101154 103.016847 
L 758.999151 101.204759 
L 760.897148 99.39267 
L 762.795145 97.580582 
L 764.693142 95.768493 
L 766.591139 93.956405 
L 768.489136 92.144316 
L 770.387133 90.332228 
L 772.28513 88.52014 
L 774.183127 86.708051 
L 776.081124 84.895963 
L 777.979121 83.083874 
L 779.877118 81.271786 
L 781.775115 79.459697 
L 783.673112 77.647609 
L 785.571109 75.83552 
L 787.469106 74.023432 
L 789.367103 72.211344 
L 791.2651 70.399255 
L 793.163097 68.587167 
L 795.061094 66.775078 
L 796.959091 64.96299 
L 798.857088 63.150901 
L 800.755085 61.338813 
L 802.653082 59.526724 
L 804.551079 57.714636 
L 806.449076 55.902548 
L 808.347073 54.090459 
L 810.24507 52.278371 
L 812.143067 50.466282 
L 814.041064 48.654194 
L 815.939061 46.842105 
L 817.837058 45.030017 
L 819.735055 43.217928 
L 821.633052 41.40584 
L 823.531049 39.593752 
L 825.429046 37.781663 
L 827.327043 35.969575 
L 829.22504 34.157486 
L 831.123037 32.345398 
" clip-path="url(#pd9e6c3f3ed)" style="fill: none; stroke-dasharray: 5.55,2.4; stroke-dashoffset: 0; stroke: #ff7f0e; stroke-width: 1.5"/>
   </g>
   <g id="patch_13">
    <path d="M 633.82625 242.918125 
L 633.82625 22.318125 
" style="fill: none; stroke: #000000; stroke-width: 0.8; stroke-linejoin: miter; stroke-linecap: square"/>
   </g>
   <g id="patch_14">
    <path d="M 840.518122 242.918125 
L 840.518122 22.318125 
" style="fill: none; stroke: #000000; stroke-width: 0.8; stroke-linejoin: miter; stroke-linecap: square"/>
   </g>
   <g id="patch_15">
    <path d="M 633.82625 242.918125 
L 840.518122 242.918125 
" style="fill: none; stroke: #000000; stroke-width: 0.8; stroke-linejoin: miter; stroke-linecap: square"/>
   </g>
   <g id="patch_16">
    <path d="M 633.82625 22.318125 
L 840.518122 22.318125 
" style="fill: none; stroke: #000000; stroke-width: 0.8; stroke-linejoin: miter; stroke-linecap: square"/>
   </g>
   <g id="text_43">
    <!-- slope=3.30e-01 -->
    <g transform="translate(644.160844 47.564562) scale(0.1 -0.1)">
     <use xlink:href="#DejaVuSans-73"/>
     <use xlink:href="#DejaVuSans-6c" transform="translate(52.099609 0)"/>
     <use xlink:href="#DejaVuSans-6f" transform="translate(79.882812 0)"/>
     <use xlink:href="#DejaVuSans-70" transform="translate(141.064453 0)"/>
     <use xlink:href="#DejaVuSans-65" transform="translate(204.541016 0)"/>
     <use xlink:href="#DejaVuSans-3d" transform="translate(266.064453 0)"/>
     <use xlink:href="#DejaVuSans-33" transform="translate(349.853516 0)"/>
     <use xlink:href="#DejaVuSans-2e" transform="translate(413.476562 0)"/>
     <use xlink:href="#DejaVuSans-33" transform="translate(445.263672 0)"/>
     <use xlink:href="#DejaVuSans-30" transform="translate(508.886719 0)"/>
     <use xlink:href="#DejaVuSans-65" transform="translate(572.509766 0)"/>
     <use xlink:href="#DejaVuSans-2d" transform="translate(634.033203 0)"/>
     <use xlink:href="#DejaVuSans-30" transform="translate(670.117188 0)"/>
     <use xlink:href="#DejaVuSans-31" transform="translate(733.740234 0)"/>
    </g>
    <!-- r=0.920 -->
    <g transform="translate(644.160844 58.762375) scale(0.1 -0.1)">
     <use xlink:href="#DejaVuSans-72"/>
     <use xlink:href="#DejaVuSans-3d" transform="translate(41.113281 0)"/>
     <use xlink:href="#DejaVuSans-30" transform="translate(124.902344 0)"/>
     <use xlink:href="#DejaVuSans-2e" transform="translate(188.525391 0)"/>
     <use xlink:href="#DejaVuSans-39" transform="translate(220.3125 0)"/>
     <use xlink:href="#DejaVuSans-32" transform="translate(283.935547 0)"/>
     <use xlink:href="#DejaVuSans-30" transform="translate(347.558594 0)"/>
    </g>
   </g>
   <g id="text_44">
    <!-- Quantum Sensitivity (1Fidelity) vs Flux -->
    <g transform="translate(618.235311 16.318125) scale(0.12 -0.12)">
     <defs>
      <path id="DejaVuSans-51" d="M 2522 4238 
Q 1834 4238 1429 3725 
Q 1025 3213 1025 2328 
Q 1025 1447 1429 934 
Q 1834 422 2522 422 
Q 3209 422 3611 934 
Q 4013 1447 4013 2328 
Q 4013 3213 3611 3725 
Q 3209 4238 2522 4238 
z
M 3406 84 
L 4238 -825 
L 3475 -825 
L 2784 -78 
Q 2681 -84 2626 -87 
Q 2572 -91 2522 -91 
Q 1538 -91 948 567 
Q 359 1225 359 2328 
Q 359 3434 948 4092 
Q 1538 4750 2522 4750 
Q 3503 4750 4090 4092 
Q 4678 3434 4678 2328 
Q 4678 1516 4351 937 
Q 4025 359 3406 84 
z
" transform="scale(0.015625)"/>
      <path id="DejaVuSans-53" d="M 3425 4513 
L 3425 3897 
Q 3066 4069 2747 4153 
Q 2428 4238 2131 4238 
Q 1616 4238 1336 4038 
Q 1056 3838 1056 3469 
Q 1056 3159 1242 3001 
Q 1428 2844 1947 2747 
L 2328 2669 
Q 3034 2534 3370 2195 
Q 3706 1856 3706 1288 
Q 3706 609 3251 259 
Q 2797 -91 1919 -91 
Q 1588 -91 1214 -16 
Q 841 59 441 206 
L 441 856 
Q 825 641 1194 531 
Q 1563 422 1919 422 
Q 2459 422 2753 634 
Q 3047 847 3047 1241 
Q 3047 1584 2836 1778 
Q 2625 1972 2144 2069 
L 1759 2144 
Q 1053 2284 737 2584 
Q 422 2884 422 3419 
Q 422 4038 858 4394 
Q 1294 4750 2059 4750 
Q 2388 4750 2728 4690 
Q 3069 4631 3425 4513 
z
" transform="scale(0.015625)"/>
     </defs>
     <use xlink:href="#DejaVuSans-51"/>
     <use xlink:href="#DejaVuSans-75" transform="translate(78.710938 0)"/>
     <use xlink:href="#DejaVuSans-61" transform="translate(142.089844 0)"/>
     <use xlink:href="#DejaVuSans-6e" transform="translate(203.369141 0)"/>
     <use xlink:href="#DejaVuSans-74" transform="translate(266.748047 0)"/>
     <use xlink:href="#DejaVuSans-75" transform="translate(305.957031 0)"/>
     <use xlink:href="#DejaVuSans-6d" transform="translate(369.335938 0)"/>
     <use xlink:href="#DejaVuSans-20" transform="translate(466.748047 0)"/>
     <use xlink:href="#DejaVuSans-53" transform="translate(498.535156 0)"/>
     <use xlink:href="#DejaVuSans-65" transform="translate(562.011719 0)"/>
     <use xlink:href="#DejaVuSans-6e" transform="translate(623.535156 0)"/>
     <use xlink:href="#DejaVuSans-73" transform="translate(686.914062 0)"/>
     <use xlink:href="#DejaVuSans-69" transform="translate(739.013672 0)"/>
     <use xlink:href="#DejaVuSans-74" transform="translate(766.796875 0)"/>
     <use xlink:href="#DejaVuSans-69" transform="translate(806.005859 0)"/>
     <use xlink:href="#DejaVuSans-76" transform="translate(833.789062 0)"/>
     <use xlink:href="#DejaVuSans-69" transform="translate(892.96875 0)"/>
     <use xlink:href="#DejaVuSans-74" transform="translate(920.751953 0)"/>
     <use xlink:href="#DejaVuSans-79" transform="translate(959.960938 0)"/>
     <use xlink:href="#DejaVuSans-20" transform="translate(1019.140625 0)"/>
     <use xlink:href="#DejaVuSans-28" transform="translate(1050.927734 0)"/>
     <use xlink:href="#DejaVuSans-31" transform="translate(1089.941406 0)"/>
     <use xlink:href="#DejaVuSans-2013" transform="translate(1153.564453 0)"/>
     <use xlink:href="#DejaVuSans-46" transform="translate(1203.564453 0)"/>
     <use xlink:href="#DejaVuSans-69" transform="translate(1253.833984 0)"/>
     <use xlink:href="#DejaVuSans-64" transform="translate(1281.617188 0)"/>
     <use xlink:href="#DejaVuSans-65" transform="translate(1345.09375 0)"/>
     <use xlink:href="#DejaVuSans-6c" transform="translate(1406.617188 0)"/>
     <use xlink:href="#DejaVuSans-69" transform="translate(1434.400391 0)"/>
     <use xlink:href="#DejaVuSans-74" transform="translate(1462.183594 0)"/>
     <use xlink:href="#DejaVuSans-79" transform="translate(1501.392578 0)"/>
     <use xlink:href="#DejaVuSans-29" transform="translate(1560.572266 0)"/>
     <use xlink:href="#DejaVuSans-20" transform="translate(1599.585938 0)"/>
     <use xlink:href="#DejaVuSans-76" transform="translate(1631.373047 0)"/>
     <use xlink:href="#DejaVuSans-73" transform="translate(1690.552734 0)"/>
     <use xlink:href="#DejaVuSans-20" transform="translate(1742.652344 0)"/>
     <use xlink:href="#DejaVuSans-46" transform="translate(1774.439453 0)"/>
     <use xlink:href="#DejaVuSans-6c" transform="translate(1831.958984 0)"/>
     <use xlink:href="#DejaVuSans-75" transform="translate(1859.742188 0)"/>
     <use xlink:href="#DejaVuSans-78" transform="translate(1923.121094 0)"/>
    </g>
   </g>
  </g>
 </g>
 <defs>
  <clipPath id="p1755e1c7c8">
   <rect x="56.50625" y="22.318125" width="206.691872" height="220.6"/>
  </clipPath>
  <clipPath id="p40d2a46ebd">
   <rect x="345.16625" y="22.318125" width="206.691872" height="220.6"/>
  </clipPath>
  <clipPath id="pd9e6c3f3ed">
   <rect x="633.82625" y="22.318125" width="206.691872" height="220.6"/>
  </clipPath>
 </defs>
</svg>
